STARTFONT 2.1
COMMENT $XConsortium: luIS14.bdf,v 1.7 94/04/02 15:59:51 gildea Exp $
COMMENT  (c) Copyright Bigelow & Holmes 1986, 1985. Lucida is a registered
COMMENT  trademark of Bigelow & Holmes. See LEGAL NOTICE file for terms 
COMMENT  of the license. 
COMMENT GRID 0014 0014 0200 0200
FONT -RFX-Serene-Medium-I-Normal-Sans-14-140-75-75-P-82-windows-1251
SIZE 14 72 72
FONTBOUNDINGBOX 16 15 -1 -2
STARTPROPERTIES 24
FONTNAME_REGISTRY ""
FOUNDRY "RFX"
FAMILY_NAME "Serene"
WEIGHT_NAME "Medium"
SLANT "I"
SETWIDTH_NAME "Normal"
ADD_STYLE_NAME "Sans"
PIXEL_SIZE 14
POINT_SIZE 140
RESOLUTION_X 75
RESOLUTION_Y 75
SPACING "P"
AVERAGE_WIDTH 82
CHARSET_REGISTRY "windows"
CHARSET_ENCODING "1251"
FONT_ASCENT 13
FONT_DESCENT 2
DEFAULT_CHAR 32
COPYRIGHT "Copyright Bigelow & Holmes 1986, 1985."
FACE_NAME "Lucida Sans Italic"
COPYRIGHT2 "Cyrillic and Euro glyphs copyright 2000 Dmitry Yu. Bolkhovityanov, bolkhov@inp.nsk.su"
SOURCEDATE "Sat Jul 22 15:16:36 2000"
PKGVERSION "1.1"
ASSEMBLER "cvtbdf.pl (Linux)"
ENDPROPERTIES
CHARS 244
STARTCHAR space
ENCODING 32
SWIDTH 316 0
DWIDTH 4 0
BBX 0 0 0 0
BITMAP
ENDCHAR
STARTCHAR exclam
ENCODING 33
SWIDTH 193 0
DWIDTH 4 0
BBX 2 10 1 0
BITMAP
40
40
40
40
80
80
80
00
80
80
ENDCHAR
STARTCHAR quotedbl
ENCODING 34
SWIDTH 361 0
DWIDTH 5 0
BBX 3 4 1 7
BITMAP
A0
A0
A0
A0
ENDCHAR
STARTCHAR numbersign
ENCODING 35
SWIDTH 633 0
DWIDTH 9 0
BBX 8 10 1 0
BITMAP
12
12
12
7F
24
24
FE
48
48
48
ENDCHAR
STARTCHAR dollar
ENCODING 36
SWIDTH 633 0
DWIDTH 9 0
BBX 7 12 1 -1
BITMAP
08
3C
4A
48
48
30
18
24
24
A4
78
20
ENDCHAR
STARTCHAR percent
ENCODING 37
SWIDTH 741 0
DWIDTH 11 0
BBX 9 10 1 0
BITMAP
6080
9100
9200
6400
0800
0800
1300
2480
4480
8300
ENDCHAR
STARTCHAR ampersand
ENCODING 38
SWIDTH 701 0
DWIDTH 10 0
BBX 9 10 1 0
BITMAP
1E00
2100
2100
1600
2880
4880
8500
8200
8600
7900
ENDCHAR
STARTCHAR quotesingle
ENCODING 39
SWIDTH 217 0
DWIDTH 3 0
BBX 1 4 1 7
BITMAP
80
80
80
80
ENDCHAR
STARTCHAR parenleft
ENCODING 40
SWIDTH 325 0
DWIDTH 5 0
BBX 5 12 1 -1
BITMAP
18
20
40
40
80
80
80
80
80
80
40
30
ENDCHAR
STARTCHAR parenright
ENCODING 41
SWIDTH 325 0
DWIDTH 5 0
BBX 5 12 -1 -1
BITMAP
60
10
08
08
08
08
08
08
10
10
20
C0
ENDCHAR
STARTCHAR asterisk
ENCODING 42
SWIDTH 470 0
DWIDTH 7 0
BBX 6 6 1 4
BITMAP
10
54
28
50
A8
20
ENDCHAR
STARTCHAR plus
ENCODING 43
SWIDTH 633 0
DWIDTH 9 0
BBX 7 7 1 1
BITMAP
08
08
10
FE
10
20
20
ENDCHAR
STARTCHAR comma
ENCODING 44
SWIDTH 316 0
DWIDTH 3 0
BBX 3 4 -1 -2
BITMAP
20
20
40
80
ENDCHAR
STARTCHAR minus
ENCODING 45
SWIDTH 633 0
DWIDTH 9 0
BBX 7 1 1 4
BITMAP
FE
ENDCHAR
STARTCHAR period
ENCODING 46
SWIDTH 316 0
DWIDTH 3 0
BBX 1 2 1 0
BITMAP
80
80
ENDCHAR
STARTCHAR slash
ENCODING 47
SWIDTH 482 0
DWIDTH 7 0
BBX 8 12 0 -1
BITMAP
01
02
02
04
08
08
10
10
20
40
40
80
ENDCHAR
STARTCHAR zero
ENCODING 48
SWIDTH 633 0
DWIDTH 9 0
BBX 7 10 1 0
BITMAP
1C
22
42
42
42
84
84
84
88
70
ENDCHAR
STARTCHAR one
ENCODING 49
SWIDTH 633 0
DWIDTH 9 0
BBX 3 10 3 0
BITMAP
20
E0
20
20
20
40
40
40
40
40
ENDCHAR
STARTCHAR two
ENCODING 50
SWIDTH 633 0
DWIDTH 9 0
BBX 7 10 1 0
BITMAP
3C
42
02
02
04
18
20
40
80
FC
ENDCHAR
STARTCHAR three
ENCODING 51
SWIDTH 633 0
DWIDTH 9 0
BBX 7 10 1 0
BITMAP
3C
42
02
04
38
04
04
04
88
70
ENDCHAR
STARTCHAR four
ENCODING 52
SWIDTH 633 0
DWIDTH 9 0
BBX 7 10 1 0
BITMAP
0C
14
24
44
44
88
FE
08
08
08
ENDCHAR
STARTCHAR five
ENCODING 53
SWIDTH 633 0
DWIDTH 9 0
BBX 7 10 1 0
BITMAP
3E
20
20
40
78
04
04
04
88
70
ENDCHAR
STARTCHAR six
ENCODING 54
SWIDTH 633 0
DWIDTH 9 0
BBX 7 10 1 0
BITMAP
1C
22
40
40
78
84
84
84
88
70
ENDCHAR
STARTCHAR seven
ENCODING 55
SWIDTH 633 0
DWIDTH 9 0
BBX 6 10 2 0
BITMAP
FC
04
04
08
10
20
40
40
80
80
ENDCHAR
STARTCHAR eight
ENCODING 56
SWIDTH 633 0
DWIDTH 9 0
BBX 7 10 1 0
BITMAP
3C
42
42
44
38
44
84
84
84
78
ENDCHAR
STARTCHAR nine
ENCODING 57
SWIDTH 633 0
DWIDTH 9 0
BBX 7 10 1 0
BITMAP
1C
22
42
42
42
3C
04
04
88
70
ENDCHAR
STARTCHAR colon
ENCODING 58
SWIDTH 316 0
DWIDTH 3 0
BBX 2 7 1 0
BITMAP
40
40
00
00
00
80
80
ENDCHAR
STARTCHAR semicolon
ENCODING 59
SWIDTH 316 0
DWIDTH 3 0
BBX 4 9 -1 -2
BITMAP
10
10
00
00
00
20
20
40
80
ENDCHAR
STARTCHAR less
ENCODING 60
SWIDTH 633 0
DWIDTH 9 0
BBX 7 7 1 1
BITMAP
06
18
60
80
40
20
10
ENDCHAR
STARTCHAR equal
ENCODING 61
SWIDTH 633 0
DWIDTH 9 0
BBX 7 3 1 3
BITMAP
7E
00
FC
ENDCHAR
STARTCHAR greater
ENCODING 62
SWIDTH 633 0
DWIDTH 9 0
BBX 7 7 1 1
BITMAP
10
08
04
02
0C
30
C0
ENDCHAR
STARTCHAR question
ENCODING 63
SWIDTH 464 0
DWIDTH 7 0
BBX 5 10 2 0
BITMAP
70
88
08
08
30
40
80
00
80
80
ENDCHAR
STARTCHAR at
ENCODING 64
SWIDTH 858 0
DWIDTH 12 0
BBX 10 10 1 0
BITMAP
0F00
3080
4040
43C0
8440
8880
8980
8EC0
4000
3F00
ENDCHAR
STARTCHAR A
ENCODING 65
SWIDTH 687 0
DWIDTH 10 0
BBX 7 10 1 0
BITMAP
06
0A
12
12
22
22
7E
42
82
82
ENDCHAR
STARTCHAR B
ENCODING 66
SWIDTH 593 0
DWIDTH 9 0
BBX 7 10 1 0
BITMAP
7C
42
42
44
7C
82
82
82
84
F8
ENDCHAR
STARTCHAR C
ENCODING 67
SWIDTH 679 0
DWIDTH 10 0
BBX 9 10 1 0
BITMAP
0F00
3080
4000
4000
8000
8000
8000
8000
8200
7C00
ENDCHAR
STARTCHAR D
ENCODING 68
SWIDTH 743 0
DWIDTH 11 0
BBX 9 10 1 0
BITMAP
7E00
4100
4080
4080
4080
8080
8100
8100
8200
FC00
ENDCHAR
STARTCHAR E
ENCODING 69
SWIDTH 547 0
DWIDTH 8 0
BBX 7 10 1 0
BITMAP
7E
40
40
40
7C
80
80
80
80
FC
ENDCHAR
STARTCHAR F
ENCODING 70
SWIDTH 536 0
DWIDTH 8 0
BBX 7 10 1 0
BITMAP
7E
40
40
40
7C
80
80
80
80
80
ENDCHAR
STARTCHAR G
ENCODING 71
SWIDTH 702 0
DWIDTH 10 0
BBX 9 10 1 0
BITMAP
0F00
3080
4000
4000
8000
8100
8100
8200
8200
7E00
ENDCHAR
STARTCHAR H
ENCODING 72
SWIDTH 735 0
DWIDTH 10 0
BBX 8 10 1 0
BITMAP
41
41
41
41
7F
82
82
82
82
82
ENDCHAR
STARTCHAR I
ENCODING 73
SWIDTH 289 0
DWIDTH 4 0
BBX 2 10 1 0
BITMAP
40
40
40
40
40
80
80
80
80
80
ENDCHAR
STARTCHAR J
ENCODING 74
SWIDTH 408 0
DWIDTH 6 0
BBX 5 12 0 -2
BITMAP
08
08
08
08
08
10
10
10
10
20
20
C0
ENDCHAR
STARTCHAR K
ENCODING 75
SWIDTH 635 0
DWIDTH 9 0
BBX 8 10 1 0
BITMAP
41
42
44
48
70
90
88
84
82
83
ENDCHAR
STARTCHAR L
ENCODING 76
SWIDTH 545 0
DWIDTH 8 0
BBX 6 10 1 0
BITMAP
40
40
40
40
40
80
80
80
80
FC
ENDCHAR
STARTCHAR M
ENCODING 77
SWIDTH 828 0
DWIDTH 13 0
BBX 11 10 1 0
BITMAP
38E0
28A0
2920
4920
4620
4440
4440
8440
8040
8040
ENDCHAR
STARTCHAR N
ENCODING 78
SWIDTH 741 0
DWIDTH 11 0
BBX 9 10 1 0
BITMAP
6080
5080
5080
4880
4880
8900
8900
8500
8500
8300
ENDCHAR
STARTCHAR O
ENCODING 79
SWIDTH 777 0
DWIDTH 11 0
BBX 9 10 1 0
BITMAP
0F00
3080
4080
4080
8080
8080
8100
8100
8600
7800
ENDCHAR
STARTCHAR P
ENCODING 80
SWIDTH 575 0
DWIDTH 8 0
BBX 7 10 1 0
BITMAP
7C
42
42
42
44
F8
80
80
80
80
ENDCHAR
STARTCHAR Q
ENCODING 81
SWIDTH 777 0
DWIDTH 11 0
BBX 9 12 1 -2
BITMAP
0F00
3080
4080
4080
8080
8080
8100
8100
8600
7800
0400
0300
ENDCHAR
STARTCHAR R
ENCODING 82
SWIDTH 632 0
DWIDTH 9 0
BBX 7 10 1 0
BITMAP
7C
42
42
42
44
F8
88
84
84
86
ENDCHAR
STARTCHAR S
ENCODING 83
SWIDTH 553 0
DWIDTH 8 0
BBX 7 10 1 0
BITMAP
3C
42
40
20
10
08
04
04
84
78
ENDCHAR
STARTCHAR T
ENCODING 84
SWIDTH 623 0
DWIDTH 9 0
BBX 8 10 1 0
BITMAP
FF
10
10
10
10
20
20
20
20
20
ENDCHAR
STARTCHAR U
ENCODING 85
SWIDTH 693 0
DWIDTH 10 0
BBX 8 10 1 0
BITMAP
41
41
41
41
82
82
82
82
44
38
ENDCHAR
STARTCHAR V
ENCODING 86
SWIDTH 687 0
DWIDTH 10 0
BBX 8 10 2 0
BITMAP
81
81
82
82
84
48
48
50
60
60
ENDCHAR
STARTCHAR W
ENCODING 87
SWIDTH 886 0
DWIDTH 13 0
BBX 12 10 1 0
BITMAP
8010
8010
8410
8420
8A20
4A40
5280
5280
6300
6300
ENDCHAR
STARTCHAR X
ENCODING 88
SWIDTH 620 0
DWIDTH 9 0
BBX 8 10 1 0
BITMAP
41
41
22
24
18
18
24
44
82
82
ENDCHAR
STARTCHAR Y
ENCODING 89
SWIDTH 608 0
DWIDTH 9 0
BBX 7 10 2 0
BITMAP
82
82
84
88
90
60
40
40
40
40
ENDCHAR
STARTCHAR Z
ENCODING 90
SWIDTH 578 0
DWIDTH 8 0
BBX 8 10 0 0
BITMAP
3F
01
02
04
08
10
20
40
80
FE
ENDCHAR
STARTCHAR bracketleft
ENCODING 91
SWIDTH 325 0
DWIDTH 5 0
BBX 5 12 1 -1
BITMAP
38
20
20
20
40
40
40
40
80
80
80
E0
ENDCHAR
STARTCHAR backslash
ENCODING 92
SWIDTH 482 0
DWIDTH 7 0
BBX 3 12 2 -1
BITMAP
80
80
80
80
40
40
40
40
20
20
20
20
ENDCHAR
STARTCHAR bracketright
ENCODING 93
SWIDTH 325 0
DWIDTH 5 0
BBX 5 12 -1 -1
BITMAP
38
08
08
08
10
10
10
10
20
20
20
E0
ENDCHAR
STARTCHAR asciicircum
ENCODING 94
SWIDTH 633 0
DWIDTH 9 0
BBX 6 7 2 3
BITMAP
0C
14
24
24
44
84
84
ENDCHAR
STARTCHAR underscore
ENCODING 95
SWIDTH 500 0
DWIDTH 10 0
BBX 8 1 1 -1
BITMAP
FF
ENDCHAR
STARTCHAR grave
ENCODING 96
SWIDTH 572 0
DWIDTH 9 0
BBX 4 2 4 9
BITMAP
C0
30
ENDCHAR
STARTCHAR a
ENCODING 97
SWIDTH 608 0
DWIDTH 9 0
BBX 7 8 1 0
BITMAP
1E
22
42
42
84
8C
94
64
ENDCHAR
STARTCHAR b
ENCODING 98
SWIDTH 608 0
DWIDTH 9 0
BBX 7 11 1 0
BITMAP
20
20
20
4C
52
62
42
84
84
88
F0
ENDCHAR
STARTCHAR c
ENCODING 99
SWIDTH 503 0
DWIDTH 7 0
BBX 6 8 1 0
BITMAP
1C
20
40
40
80
80
88
70
ENDCHAR
STARTCHAR d
ENCODING 100
SWIDTH 608 0
DWIDTH 9 0
BBX 8 11 1 0
BITMAP
01
01
01
1E
22
42
42
84
8C
94
64
ENDCHAR
STARTCHAR e
ENCODING 101
SWIDTH 529 0
DWIDTH 7 0
BBX 6 8 1 0
BITMAP
18
24
44
48
F0
80
88
70
ENDCHAR
STARTCHAR f
ENCODING 102
SWIDTH 383 0
DWIDTH 6 0
BBX 6 13 1 -2
BITMAP
1C
20
20
F8
40
40
40
40
40
80
80
80
80
ENDCHAR
STARTCHAR g
ENCODING 103
SWIDTH 608 0
DWIDTH 9 0
BBX 8 10 0 -2
BITMAP
0F
11
21
21
46
4A
32
02
84
78
ENDCHAR
STARTCHAR h
ENCODING 104
SWIDTH 620 0
DWIDTH 9 0
BBX 7 11 1 0
BITMAP
20
20
20
4C
52
62
42
84
84
84
84
ENDCHAR
STARTCHAR i
ENCODING 105
SWIDTH 289 0
DWIDTH 4 0
BBX 3 11 1 0
BITMAP
20
40
00
40
40
40
40
80
80
80
80
ENDCHAR
STARTCHAR j
ENCODING 106
SWIDTH 325 0
DWIDTH 5 0
BBX 5 13 0 -2
BITMAP
08
10
00
10
10
10
10
20
20
20
20
20
C0
ENDCHAR
STARTCHAR k
ENCODING 107
SWIDTH 572 0
DWIDTH 8 0
BBX 7 11 1 0
BITMAP
20
20
20
22
44
48
70
90
88
84
86
ENDCHAR
STARTCHAR l
ENCODING 108
SWIDTH 289 0
DWIDTH 5 0
BBX 3 11 1 0
BITMAP
20
20
20
40
40
40
40
80
80
80
80
ENDCHAR
STARTCHAR m
ENCODING 109
SWIDTH 934 0
DWIDTH 14 0
BBX 12 8 1 0
BITMAP
4C60
5290
6310
4210
8420
8420
8420
8420
ENDCHAR
STARTCHAR n
ENCODING 110
SWIDTH 620 0
DWIDTH 9 0
BBX 7 8 1 0
BITMAP
4C
52
62
42
84
84
84
84
ENDCHAR
STARTCHAR o
ENCODING 111
SWIDTH 566 0
DWIDTH 9 0
BBX 7 8 1 0
BITMAP
1C
22
42
82
82
84
88
70
ENDCHAR
STARTCHAR p
ENCODING 112
SWIDTH 608 0
DWIDTH 9 0
BBX 8 10 0 -2
BITMAP
26
29
31
21
42
42
44
78
80
80
ENDCHAR
STARTCHAR q
ENCODING 113
SWIDTH 608 0
DWIDTH 9 0
BBX 7 10 1 -2
BITMAP
1E
22
42
42
84
8C
94
64
08
08
ENDCHAR
STARTCHAR r
ENCODING 114
SWIDTH 478 0
DWIDTH 7 0
BBX 6 8 1 0
BITMAP
4C
48
50
60
80
80
80
80
ENDCHAR
STARTCHAR s
ENCODING 115
SWIDTH 489 0
DWIDTH 7 0
BBX 6 8 1 0
BITMAP
3C
40
40
30
08
08
08
F0
ENDCHAR
STARTCHAR t
ENCODING 116
SWIDTH 383 0
DWIDTH 6 0
BBX 5 10 1 0
BITMAP
20
20
F8
40
40
40
80
80
80
70
ENDCHAR
STARTCHAR u
ENCODING 117
SWIDTH 620 0
DWIDTH 9 0
BBX 7 8 1 0
BITMAP
42
42
42
42
84
8C
94
64
ENDCHAR
STARTCHAR v
ENCODING 118
SWIDTH 545 0
DWIDTH 7 0
BBX 6 8 1 0
BITMAP
84
84
84
88
88
90
A0
C0
ENDCHAR
STARTCHAR w
ENCODING 119
SWIDTH 795 0
DWIDTH 11 0
BBX 10 8 1 0
BITMAP
8040
8840
8840
8880
9480
9480
A500
C600
ENDCHAR
STARTCHAR x
ENCODING 120
SWIDTH 541 0
DWIDTH 8 0
BBX 8 8 0 0
BITMAP
21
21
22
14
28
44
84
84
ENDCHAR
STARTCHAR y
ENCODING 121
SWIDTH 548 0
DWIDTH 7 0
BBX 8 10 -1 -2
BITMAP
21
21
21
22
22
24
28
30
20
C0
ENDCHAR
STARTCHAR z
ENCODING 122
SWIDTH 536 0
DWIDTH 7 0
BBX 7 8 0 0
BITMAP
7E
04
08
10
20
40
80
FC
ENDCHAR
STARTCHAR braceleft
ENCODING 123
SWIDTH 325 0
DWIDTH 5 0
BBX 6 12 0 -1
BITMAP
0C
10
20
20
20
10
60
30
40
80
80
60
ENDCHAR
STARTCHAR bar
ENCODING 124
SWIDTH 233 0
DWIDTH 4 0
BBX 3 12 1 -1
BITMAP
20
20
20
20
40
40
40
40
80
80
80
80
ENDCHAR
STARTCHAR braceright
ENCODING 125
SWIDTH 325 0
DWIDTH 5 0
BBX 6 12 -1 -1
BITMAP
18
04
04
08
10
20
18
20
10
10
20
C0
ENDCHAR
STARTCHAR asciitilde
ENCODING 126
SWIDTH 633 0
DWIDTH 9 0
BBX 7 3 1 3
BITMAP
32
54
98
ENDCHAR
STARTCHAR afii10051
ENCODING 128
SWIDTH 857 0
DWIDTH 12 0
BBX 9 10 1 0
BITMAP
FF00
1000
1000
1700
1880
2080
2080
2080
2100
2600
ENDCHAR
STARTCHAR afii10052
ENCODING 129
SWIDTH 571 0
DWIDTH 8 0
BBX 7 13 1 0
BITMAP
06
18
00
7E
40
40
40
40
80
80
80
80
80
ENDCHAR
STARTCHAR quotesinglbase
ENCODING 130
SWIDTH 217 0
DWIDTH 3 0
BBX 3 4 0 -2
BITMAP
20
20
40
80
ENDCHAR
STARTCHAR afii10100
ENCODING 131
SWIDTH 500 0
DWIDTH 7 0
BBX 6 11 1 0
BITMAP
0C
30
00
38
44
04
18
60
80
88
70
ENDCHAR
STARTCHAR quotedblbase
ENCODING 132
SWIDTH 361 0
DWIDTH 5 0
BBX 6 4 -1 -2
BITMAP
24
24
48
90
ENDCHAR
STARTCHAR ellipsis
ENCODING 133
SWIDTH 1000 0
DWIDTH 9 0
BBX 5 2 2 0
BITMAP
88
88
ENDCHAR
STARTCHAR dagger
ENCODING 134
SWIDTH 633 0
DWIDTH 9 0
BBX 6 11 2 -1
BITMAP
10
10
10
FC
20
20
20
40
40
40
40
ENDCHAR
STARTCHAR daggerdbl
ENCODING 135
SWIDTH 633 0
DWIDTH 9 0
BBX 7 11 1 -1
BITMAP
08
08
08
7E
10
10
10
FC
20
20
20
ENDCHAR
STARTCHAR Euro
ENCODING 136
SWIDTH 785 0
DWIDTH 11 0
BBX 10 10 1 0
BITMAP
0780
1840
2000
7F00
4000
FC00
4000
4000
4100
3E00
ENDCHAR
STARTCHAR perthousand
ENCODING 137
SWIDTH 1027 0
DWIDTH 15 0
BBX 13 10 1 0
BITMAP
6080
9100
9200
6400
0800
0800
1330
24C8
44C8
8330
ENDCHAR
STARTCHAR afii10058
ENCODING 138
SWIDTH 1000 0
DWIDTH 14 0
BBX 13 10 0 0
BITMAP
1F80
1080
1080
1080
10E0
2110
2108
4108
4108
81F0
ENDCHAR
STARTCHAR guilsinglleft
ENCODING 139
SWIDTH 328 0
DWIDTH 5 0
BBX 4 5 1 2
BITMAP
10
60
80
40
20
ENDCHAR
STARTCHAR afii10059
ENCODING 140
SWIDTH 1000 0
DWIDTH 14 0
BBX 12 10 1 0
BITMAP
4100
4100
4100
4100
7FC0
8220
8210
8210
8210
83E0
ENDCHAR
STARTCHAR afii10061
ENCODING 141
SWIDTH 642 0
DWIDTH 9 0
BBX 8 13 1 0
BITMAP
06
18
00
41
42
44
48
70
90
88
84
82
83
ENDCHAR
STARTCHAR afii10060
ENCODING 142
SWIDTH 857 0
DWIDTH 12 0
BBX 9 10 1 0
BITMAP
FF00
1000
1000
1700
1880
2080
2080
2080
2080
2080
ENDCHAR
STARTCHAR afii10145
ENCODING 143
SWIDTH 714 0
DWIDTH 10 0
BBX 8 12 1 -2
BITMAP
41
41
41
41
41
82
82
82
82
FE
10
10
ENDCHAR
STARTCHAR afii10099
ENCODING 144
SWIDTH 642 0
DWIDTH 9 0
BBX 7 13 1 -2
BITMAP
20
7C
20
4C
52
62
42
84
84
84
88
08
10
ENDCHAR
STARTCHAR quoteleft
ENCODING 145
SWIDTH 217 0
DWIDTH 3 0
BBX 3 4 1 7
BITMAP
20
40
80
80
ENDCHAR
STARTCHAR quoteright
ENCODING 146
SWIDTH 217 0
DWIDTH 3 0
BBX 3 4 1 7
BITMAP
20
20
40
80
ENDCHAR
STARTCHAR quotedblleft
ENCODING 147
SWIDTH 361 0
DWIDTH 5 0
BBX 6 4 0 7
BITMAP
24
48
90
90
ENDCHAR
STARTCHAR quotedblright
ENCODING 148
SWIDTH 361 0
DWIDTH 5 0
BBX 6 4 0 7
BITMAP
24
24
48
90
ENDCHAR
STARTCHAR bullet
ENCODING 149
SWIDTH 633 0
DWIDTH 9 0
BBX 3 3 3 3
BITMAP
E0
E0
E0
ENDCHAR
STARTCHAR endash
ENCODING 150
SWIDTH 500 0
DWIDTH 7 0
BBX 6 1 1 4
BITMAP
FC
ENDCHAR
STARTCHAR emdash
ENCODING 151
SWIDTH 1000 0
DWIDTH 15 0
BBX 14 1 1 4
BITMAP
FFFC
ENDCHAR
STARTCHAR trademark
ENCODING 153
SWIDTH 801 0
DWIDTH 12 0
BBX 9 4 2 6
BITMAP
ED80
4A80
9500
9500
ENDCHAR
STARTCHAR afii10106
ENCODING 154
SWIDTH 928 0
DWIDTH 13 0
BBX 12 8 0 0
BITMAP
1F00
1100
1160
1190
2210
2210
4220
81C0
ENDCHAR
STARTCHAR guilsinglright
ENCODING 155
SWIDTH 328 0
DWIDTH 5 0
BBX 4 5 0 2
BITMAP
40
20
10
60
80
ENDCHAR
STARTCHAR afii10107
ENCODING 156
SWIDTH 928 0
DWIDTH 13 0
BBX 11 8 1 0
BITMAP
4200
4200
42C0
7F20
8420
8420
8440
8380
ENDCHAR
STARTCHAR afii10109
ENCODING 157
SWIDTH 571 0
DWIDTH 8 0
BBX 7 11 1 0
BITMAP
06
18
00
42
44
48
70
90
88
84
86
ENDCHAR
STARTCHAR afii10108
ENCODING 158
SWIDTH 642 0
DWIDTH 9 0
BBX 7 11 1 0
BITMAP
20
7C
20
4C
52
62
42
84
84
84
84
ENDCHAR
STARTCHAR afii10193
ENCODING 159
SWIDTH 642 0
DWIDTH 9 0
BBX 7 10 1 -2
BITMAP
42
42
42
42
84
8C
94
64
20
20
ENDCHAR
STARTCHAR space
ENCODING 160
SWIDTH 316 0
DWIDTH 4 0
BBX 0 0 0 0
BITMAP
ENDCHAR
STARTCHAR afii10062
ENCODING 161
SWIDTH 714 0
DWIDTH 10 0
BBX 8 12 2 0
BITMAP
1C
00
81
81
82
82
44
48
50
20
40
80
ENDCHAR
STARTCHAR afii10110
ENCODING 162
SWIDTH 500 0
DWIDTH 7 0
BBX 8 12 -1 -2
BITMAP
0C
00
21
21
21
22
22
24
28
30
20
C0
ENDCHAR
STARTCHAR afii10057
ENCODING 163
SWIDTH 408 0
DWIDTH 6 0
BBX 5 12 0 -2
BITMAP
08
08
08
08
08
10
10
10
10
20
20
C0
ENDCHAR
STARTCHAR currency
ENCODING 164
SWIDTH 633 0
DWIDTH 9 0
BBX 9 9 0 0
BITMAP
4080
2100
1E00
1200
2200
2400
3C00
4200
8100
ENDCHAR
STARTCHAR afii10050
ENCODING 165
SWIDTH 571 0
DWIDTH 8 0
BBX 8 12 1 0
BITMAP
01
01
7E
40
40
40
40
80
80
80
80
80
ENDCHAR
STARTCHAR brokenbar
ENCODING 166
SWIDTH 233 0
DWIDTH 4 0
BBX 3 12 1 -1
BITMAP
20
20
20
20
20
00
00
80
80
80
80
80
ENDCHAR
STARTCHAR section
ENCODING 167
SWIDTH 633 0
DWIDTH 9 0
BBX 8 11 1 -1
BITMAP
1E
21
20
38
44
42
22
1C
04
84
78
ENDCHAR
STARTCHAR afii10023
ENCODING 168
SWIDTH 547 0
DWIDTH 8 0
BBX 7 13 1 0
BITMAP
24
24
00
7E
40
40
40
7C
80
80
80
80
FC
ENDCHAR
STARTCHAR copyright
ENCODING 169
SWIDTH 858 0
DWIDTH 12 0
BBX 10 10 1 0
BITMAP
1E00
6180
4C80
9240
9040
9040
9240
4C80
6180
1E00
ENDCHAR
STARTCHAR afii10053
ENCODING 170
SWIDTH 714 0
DWIDTH 10 0
BBX 9 10 1 0
BITMAP
0F00
3080
4000
4000
F800
8000
8000
8000
8200
7C00
ENDCHAR
STARTCHAR guillemotleft
ENCODING 171
SWIDTH 527 0
DWIDTH 8 0
BBX 8 5 0 2
BITMAP
11
66
88
44
22
ENDCHAR
STARTCHAR logicalnot
ENCODING 172
SWIDTH 633 0
DWIDTH 9 0
BBX 7 4 1 1
BITMAP
FE
02
02
02
ENDCHAR
STARTCHAR hyphen
ENCODING 173
SWIDTH 313 0
DWIDTH 5 0
BBX 3 1 1 4
BITMAP
E0
ENDCHAR
STARTCHAR registered
ENCODING 174
SWIDTH 633 0
DWIDTH 9 0
BBX 8 8 1 2
BITMAP
3C
42
99
95
99
95
42
3C
ENDCHAR
STARTCHAR afii10056
ENCODING 175
SWIDTH 289 0
DWIDTH 4 0
BBX 3 13 1 0
BITMAP
A0
A0
00
40
40
40
40
40
80
80
80
80
80
ENDCHAR
STARTCHAR degree
ENCODING 176
SWIDTH 269 0
DWIDTH 4 0
BBX 4 3 1 7
BITMAP
60
90
60
ENDCHAR
STARTCHAR plusminus
ENCODING 177
SWIDTH 633 0
DWIDTH 9 0
BBX 7 7 1 1
BITMAP
08
08
7E
10
10
00
FC
ENDCHAR
STARTCHAR afii10055
ENCODING 178
SWIDTH 289 0
DWIDTH 4 0
BBX 2 10 1 0
BITMAP
40
40
40
40
40
80
80
80
80
80
ENDCHAR
STARTCHAR afii10103
ENCODING 179
SWIDTH 289 0
DWIDTH 4 0
BBX 3 11 1 0
BITMAP
20
40
00
40
40
40
40
80
80
80
80
ENDCHAR
STARTCHAR afii10098
ENCODING 180
SWIDTH 500 0
DWIDTH 7 0
BBX 6 9 1 0
BITMAP
04
7C
40
40
40
80
80
80
80
ENDCHAR
STARTCHAR mu
ENCODING 181
SWIDTH 627 0
DWIDTH 9 0
BBX 8 10 0 -2
BITMAP
21
21
21
21
42
46
4A
72
80
80
ENDCHAR
STARTCHAR paragraph
ENCODING 182
SWIDTH 633 0
DWIDTH 9 0
BBX 6 11 2 -1
BITMAP
7C
94
94
94
68
28
28
28
50
50
50
ENDCHAR
STARTCHAR periodcentered
ENCODING 183
SWIDTH 316 0
DWIDTH 9 0
BBX 2 2 4 3
BITMAP
C0
C0
ENDCHAR
STARTCHAR afii10071
ENCODING 184
SWIDTH 529 0
DWIDTH 7 0
BBX 6 11 1 0
BITMAP
24
24
00
18
24
44
48
F0
80
88
70
ENDCHAR
STARTCHAR afii61352
ENCODING 185
SWIDTH 1000 0
DWIDTH 14 0
BBX 12 10 1 0
BITMAP
6100
6100
5120
5150
5150
8A20
8A00
8AE0
8600
8600
ENDCHAR
STARTCHAR afii10101
ENCODING 186
SWIDTH 500 0
DWIDTH 7 0
BBX 6 8 1 0
BITMAP
1C
20
40
70
80
80
88
70
ENDCHAR
STARTCHAR guillemotright
ENCODING 187
SWIDTH 527 0
DWIDTH 8 0
BBX 8 5 0 2
BITMAP
44
22
11
66
88
ENDCHAR
STARTCHAR afii10105
ENCODING 188
SWIDTH 325 0
DWIDTH 5 0
BBX 5 13 0 -2
BITMAP
08
10
00
10
10
10
10
20
20
20
20
20
C0
ENDCHAR
STARTCHAR afii10054
ENCODING 189
SWIDTH 553 0
DWIDTH 8 0
BBX 7 10 1 0
BITMAP
3C
42
40
20
10
08
04
04
84
78
ENDCHAR
STARTCHAR afii10102
ENCODING 190
SWIDTH 489 0
DWIDTH 7 0
BBX 6 8 1 0
BITMAP
3C
40
40
30
08
08
08
F0
ENDCHAR
STARTCHAR afii10104
ENCODING 191
SWIDTH 289 0
DWIDTH 4 0
BBX 3 11 1 0
BITMAP
A0
A0
00
40
40
40
40
80
80
80
80
ENDCHAR
STARTCHAR afii10017
ENCODING 192
SWIDTH 714 0
DWIDTH 10 0
BBX 7 10 1 0
BITMAP
06
0A
12
12
22
22
7E
42
82
82
ENDCHAR
STARTCHAR afii10018
ENCODING 193
SWIDTH 642 0
DWIDTH 9 0
BBX 8 10 1 0
BITMAP
7F
40
40
40
78
84
82
82
82
FC
ENDCHAR
STARTCHAR afii10019
ENCODING 194
SWIDTH 642 0
DWIDTH 9 0
BBX 7 10 1 0
BITMAP
7C
42
42
44
7C
82
82
82
84
F8
ENDCHAR
STARTCHAR afii10020
ENCODING 195
SWIDTH 571 0
DWIDTH 8 0
BBX 7 10 1 0
BITMAP
7E
40
40
40
40
80
80
80
80
80
ENDCHAR
STARTCHAR afii10021
ENCODING 196
SWIDTH 714 0
DWIDTH 10 0
BBX 10 12 -1 -2
BITMAP
0FC0
0840
0840
0840
0840
1080
1080
2080
2080
7FC0
8080
8080
ENDCHAR
STARTCHAR afii10022
ENCODING 197
SWIDTH 571 0
DWIDTH 8 0
BBX 7 10 1 0
BITMAP
7E
40
40
40
7C
80
80
80
80
FC
ENDCHAR
STARTCHAR afii10024
ENCODING 198
SWIDTH 928 0
DWIDTH 13 0
BBX 13 10 0 0
BITMAP
2108
1110
0920
0540
0780
0A80
1240
2220
4210
C218
ENDCHAR
STARTCHAR afii10025
ENCODING 199
SWIDTH 642 0
DWIDTH 9 0
BBX 7 10 1 0
BITMAP
3C
42
02
04
1C
02
02
02
84
78
ENDCHAR
STARTCHAR afii10026
ENCODING 200
SWIDTH 714 0
DWIDTH 10 0
BBX 8 10 1 0
BITMAP
43
45
45
49
49
92
92
A2
A2
C2
ENDCHAR
STARTCHAR afii10027
ENCODING 201
SWIDTH 714 0
DWIDTH 10 0
BBX 8 12 1 0
BITMAP
1C
00
43
45
45
49
49
92
92
A2
A2
C2
ENDCHAR
STARTCHAR afii10028
ENCODING 202
SWIDTH 642 0
DWIDTH 9 0
BBX 8 10 1 0
BITMAP
41
42
44
48
70
90
88
84
82
83
ENDCHAR
STARTCHAR afii10029
ENCODING 203
SWIDTH 714 0
DWIDTH 10 0
BBX 9 10 0 0
BITMAP
1F80
1080
1080
1080
1080
2100
2100
4100
4100
8100
ENDCHAR
STARTCHAR afii10030
ENCODING 204
SWIDTH 928 0
DWIDTH 13 0
BBX 11 10 1 0
BITMAP
38E0
28A0
2920
4920
4620
4440
4440
8440
8040
8040
ENDCHAR
STARTCHAR afii10031
ENCODING 205
SWIDTH 714 0
DWIDTH 10 0
BBX 8 10 1 0
BITMAP
41
41
41
41
7F
82
82
82
82
82
ENDCHAR
STARTCHAR afii10032
ENCODING 206
SWIDTH 785 0
DWIDTH 11 0
BBX 9 10 1 0
BITMAP
0F00
3080
4080
4080
8080
8080
8100
8100
8600
7800
ENDCHAR
STARTCHAR afii10033
ENCODING 207
SWIDTH 714 0
DWIDTH 10 0
BBX 8 10 1 0
BITMAP
7F
41
41
41
41
82
82
82
82
82
ENDCHAR
STARTCHAR afii10034
ENCODING 208
SWIDTH 571 0
DWIDTH 8 0
BBX 7 10 1 0
BITMAP
7C
42
42
42
44
F8
80
80
80
80
ENDCHAR
STARTCHAR afii10035
ENCODING 209
SWIDTH 714 0
DWIDTH 10 0
BBX 9 10 1 0
BITMAP
0F00
3080
4000
4000
8000
8000
8000
8000
8200
7C00
ENDCHAR
STARTCHAR afii10036
ENCODING 210
SWIDTH 642 0
DWIDTH 9 0
BBX 8 10 1 0
BITMAP
FF
10
10
10
10
20
20
20
20
20
ENDCHAR
STARTCHAR afii10037
ENCODING 211
SWIDTH 714 0
DWIDTH 10 0
BBX 8 10 2 0
BITMAP
81
81
82
82
44
48
50
20
40
80
ENDCHAR
STARTCHAR afii10038
ENCODING 212
SWIDTH 857 0
DWIDTH 12 0
BBX 10 10 1 0
BITMAP
0400
1F00
2480
4440
8440
8840
8880
4900
3E00
0800
ENDCHAR
STARTCHAR afii10039
ENCODING 213
SWIDTH 642 0
DWIDTH 9 0
BBX 8 10 1 0
BITMAP
41
41
22
24
18
18
24
44
82
82
ENDCHAR
STARTCHAR afii10040
ENCODING 214
SWIDTH 714 0
DWIDTH 10 0
BBX 8 12 1 -2
BITMAP
41
41
41
41
41
82
82
82
82
FF
02
02
ENDCHAR
STARTCHAR afii10041
ENCODING 215
SWIDTH 714 0
DWIDTH 10 0
BBX 7 10 2 0
BITMAP
82
82
82
82
86
8C
74
04
04
04
ENDCHAR
STARTCHAR afii10042
ENCODING 216
SWIDTH 1000 0
DWIDTH 14 0
BBX 12 10 1 0
BITMAP
4210
4210
4210
4210
4210
8420
8420
8420
8420
FFE0
ENDCHAR
STARTCHAR afii10043
ENCODING 217
SWIDTH 1000 0
DWIDTH 14 0
BBX 12 12 1 -2
BITMAP
4210
4210
4210
4210
4210
8420
8420
8420
8420
FFF0
0020
0020
ENDCHAR
STARTCHAR afii10044
ENCODING 218
SWIDTH 714 0
DWIDTH 10 0
BBX 8 10 1 0
BITMAP
E0
20
20
20
3C
42
41
41
41
7E
ENDCHAR
STARTCHAR afii10045
ENCODING 219
SWIDTH 928 0
DWIDTH 13 0
BBX 11 10 1 0
BITMAP
4020
4020
4020
4020
7820
8440
8240
8240
8240
FC40
ENDCHAR
STARTCHAR afii10046
ENCODING 220
SWIDTH 642 0
DWIDTH 9 0
BBX 7 10 1 0
BITMAP
40
40
40
40
78
84
82
82
82
FC
ENDCHAR
STARTCHAR afii10047
ENCODING 221
SWIDTH 714 0
DWIDTH 10 0
BBX 9 10 0 0
BITMAP
1F00
2080
0080
0080
0F80
0080
0100
0100
8600
7800
ENDCHAR
STARTCHAR afii10048
ENCODING 222
SWIDTH 1000 0
DWIDTH 14 0
BBX 12 10 1 0
BITMAP
41E0
4610
4810
4810
7010
9010
9020
9020
90C0
8F00
ENDCHAR
STARTCHAR afii10049
ENCODING 223
SWIDTH 714 0
DWIDTH 10 0
BBX 9 10 0 0
BITMAP
1F80
2080
2080
2080
1080
0F00
0900
1100
2100
C100
ENDCHAR
STARTCHAR afii10065
ENCODING 224
SWIDTH 642 0
DWIDTH 9 0
BBX 7 8 1 0
BITMAP
1E
22
42
42
84
8C
94
64
ENDCHAR
STARTCHAR afii10066
ENCODING 225
SWIDTH 642 0
DWIDTH 9 0
BBX 9 11 1 0
BITMAP
0380
0C00
1000
2C00
5200
6200
4200
8200
8400
8800
7000
ENDCHAR
STARTCHAR afii10067
ENCODING 226
SWIDTH 642 0
DWIDTH 9 0
BBX 7 11 1 0
BITMAP
1C
22
22
44
4C
52
82
82
84
88
70
ENDCHAR
STARTCHAR afii10068
ENCODING 227
SWIDTH 500 0
DWIDTH 7 0
BBX 6 8 1 0
BITMAP
38
44
04
18
60
80
88
70
ENDCHAR
STARTCHAR afii10069
ENCODING 228
SWIDTH 642 0
DWIDTH 9 0
BBX 7 11 1 0
BITMAP
18
04
04
1A
26
42
82
82
84
88
70
ENDCHAR
STARTCHAR afii10070
ENCODING 229
SWIDTH 500 0
DWIDTH 7 0
BBX 6 8 1 0
BITMAP
18
24
44
48
F0
80
88
70
ENDCHAR
STARTCHAR afii10072
ENCODING 230
SWIDTH 785 0
DWIDTH 11 0
BBX 11 8 0 0
BITMAP
2220
1240
0A80
0700
0D00
1480
2440
C460
ENDCHAR
STARTCHAR afii10073
ENCODING 231
SWIDTH 500 0
DWIDTH 7 0
BBX 7 8 0 0
BITMAP
1C
22
04
18
04
04
88
70
ENDCHAR
STARTCHAR afii10074
ENCODING 232
SWIDTH 642 0
DWIDTH 9 0
BBX 7 8 1 0
BITMAP
42
42
42
42
84
8C
94
64
ENDCHAR
STARTCHAR afii10075
ENCODING 233
SWIDTH 642 0
DWIDTH 9 0
BBX 7 10 1 0
BITMAP
18
00
42
42
42
42
84
8C
94
64
ENDCHAR
STARTCHAR afii10076
ENCODING 234
SWIDTH 571 0
DWIDTH 8 0
BBX 7 8 1 0
BITMAP
42
44
48
70
90
88
84
86
ENDCHAR
STARTCHAR afii10077
ENCODING 235
SWIDTH 642 0
DWIDTH 9 0
BBX 8 8 0 0
BITMAP
1F
11
11
11
22
22
42
82
ENDCHAR
STARTCHAR afii10078
ENCODING 236
SWIDTH 857 0
DWIDTH 12 0
BBX 10 8 1 0
BITMAP
60C0
6140
5140
5240
9480
8880
8880
8080
ENDCHAR
STARTCHAR afii10079
ENCODING 237
SWIDTH 642 0
DWIDTH 9 0
BBX 7 8 1 0
BITMAP
42
42
42
7E
84
84
84
84
ENDCHAR
STARTCHAR afii10080
ENCODING 238
SWIDTH 642 0
DWIDTH 9 0
BBX 7 8 1 0
BITMAP
1C
22
42
82
82
84
88
70
ENDCHAR
STARTCHAR afii10081
ENCODING 239
SWIDTH 642 0
DWIDTH 9 0
BBX 7 8 1 0
BITMAP
4C
52
62
42
84
84
84
84
ENDCHAR
STARTCHAR afii10082
ENCODING 240
SWIDTH 642 0
DWIDTH 9 0
BBX 8 10 0 -2
BITMAP
26
29
31
21
42
42
44
78
80
80
ENDCHAR
STARTCHAR afii10083
ENCODING 241
SWIDTH 500 0
DWIDTH 7 0
BBX 6 8 1 0
BITMAP
1C
20
40
40
80
80
88
70
ENDCHAR
STARTCHAR afii10084
ENCODING 242
SWIDTH 1000 0
DWIDTH 14 0
BBX 12 8 1 0
BITMAP
4C60
5290
6310
4210
8420
8420
8420
8420
ENDCHAR
STARTCHAR afii10085
ENCODING 243
SWIDTH 500 0
DWIDTH 7 0
BBX 8 10 -1 -2
BITMAP
21
21
21
22
22
24
28
30
20
C0
ENDCHAR
STARTCHAR afii10086
ENCODING 244
SWIDTH 1000 0
DWIDTH 14 0
BBX 12 13 1 -2
BITMAP
0100
0100
0100
1AE0
2710
4210
4210
8420
8420
8E40
7580
0800
0800
ENDCHAR
STARTCHAR afii10087
ENCODING 245
SWIDTH 571 0
DWIDTH 8 0
BBX 8 8 0 0
BITMAP
21
21
22
14
28
44
84
84
ENDCHAR
STARTCHAR afii10088
ENCODING 246
SWIDTH 642 0
DWIDTH 9 0
BBX 7 10 1 -2
BITMAP
42
42
42
42
84
8C
94
66
02
02
ENDCHAR
STARTCHAR afii10089
ENCODING 247
SWIDTH 571 0
DWIDTH 8 0
BBX 6 8 1 0
BITMAP
84
84
84
8C
98
68
08
08
ENDCHAR
STARTCHAR afii10090
ENCODING 248
SWIDTH 1000 0
DWIDTH 14 0
BBX 12 8 1 0
BITMAP
4210
4210
4210
4210
8420
8C60
94A0
6320
ENDCHAR
STARTCHAR afii10091
ENCODING 249
SWIDTH 1000 0
DWIDTH 14 0
BBX 12 10 1 -2
BITMAP
4210
4210
4210
4210
8420
8C60
94A0
6330
0010
0010
ENDCHAR
STARTCHAR afii10092
ENCODING 250
SWIDTH 642 0
DWIDTH 9 0
BBX 7 8 1 0
BITMAP
E0
20
2C
32
42
42
44
38
ENDCHAR
STARTCHAR afii10093
ENCODING 251
SWIDTH 857 0
DWIDTH 12 0
BBX 10 8 1 0
BITMAP
4040
4040
5840
6440
8480
8480
8880
7080
ENDCHAR
STARTCHAR afii10094
ENCODING 252
SWIDTH 571 0
DWIDTH 8 0
BBX 6 8 1 0
BITMAP
40
40
58
64
84
84
88
70
ENDCHAR
STARTCHAR afii10095
ENCODING 253
SWIDTH 571 0
DWIDTH 8 0
BBX 7 8 0 0
BITMAP
1C
22
02
1E
04
04
88
70
ENDCHAR
STARTCHAR afii10096
ENCODING 254
SWIDTH 857 0
DWIDTH 12 0
BBX 10 8 1 0
BITMAP
4380
4440
4840
7040
9040
9080
9100
8E00
ENDCHAR
STARTCHAR afii10097
ENCODING 255
SWIDTH 642 0
DWIDTH 9 0
BBX 8 8 0 0
BITMAP
1F
21
21
21
1E
12
22
C2
ENDCHAR
STARTCHAR fl
ENCODING -1
SWIDTH 639 0
DWIDTH 9 0
BBX 8 13 1 -2
BITMAP
1F
21
21
FA
42
42
42
44
44
84
84
80
80
ENDCHAR
STARTCHAR Zcaron
ENCODING -1
SWIDTH 578 0
DWIDTH 8 0
BBX 8 13 0 0
BITMAP
09
06
00
3F
01
02
04
08
10
20
40
80
FE
ENDCHAR
STARTCHAR oe
ENCODING -1
SWIDTH 899 0
DWIDTH 12 0
BBX 11 8 1 0
BITMAP
1DC0
2220
4220
84C0
8700
8400
8C40
7380
ENDCHAR
STARTCHAR Ydieresis
ENCODING -1
SWIDTH 608 0
DWIDTH 9 0
BBX 7 13 2 0
BITMAP
24
24
00
82
82
84
88
90
60
40
40
40
40
ENDCHAR
STARTCHAR dotlessi
ENCODING -1
SWIDTH 289 0
DWIDTH 4 0
BBX 2 8 1 0
BITMAP
40
40
40
40
80
80
80
80
ENDCHAR
STARTCHAR lslash
ENCODING -1
SWIDTH 289 0
DWIDTH 5 0
BBX 5 11 0 0
BITMAP
10
10
10
20
38
E0
20
40
40
40
40
ENDCHAR
STARTCHAR Lslash
ENCODING -1
SWIDTH 545 0
DWIDTH 8 0
BBX 8 10 0 0
BITMAP
10
10
10
10
1E
F0
20
20
20
3F
ENDCHAR
STARTCHAR fi
ENCODING -1
SWIDTH 639 0
DWIDTH 9 0
BBX 8 13 1 -2
BITMAP
1D
22
20
FE
42
42
42
44
44
84
84
80
80
ENDCHAR
STARTCHAR OE
ENCODING -1
SWIDTH 1005 0
DWIDTH 14 0
BBX 13 10 1 0
BITMAP
0FF8
3100
4100
4100
81F0
8200
8200
8200
8600
7BF0
ENDCHAR
STARTCHAR caron
ENCODING -1
SWIDTH 568 0
DWIDTH 9 0
BBX 4 2 4 9
BITMAP
90
60
ENDCHAR
STARTCHAR ogonek
ENCODING -1
SWIDTH 566 0
DWIDTH 9 0
BBX 3 2 4 -2
BITMAP
80
60
ENDCHAR
STARTCHAR hungarumlaut
ENCODING -1
SWIDTH 566 0
DWIDTH 9 0
BBX 5 2 3 9
BITMAP
48
90
ENDCHAR
STARTCHAR dotaccent
ENCODING -1
SWIDTH 566 0
DWIDTH 9 0
BBX 1 2 5 9
BITMAP
80
80
ENDCHAR
STARTCHAR breve
ENCODING -1
SWIDTH 566 0
DWIDTH 9 0
BBX 5 2 3 9
BITMAP
88
70
ENDCHAR
STARTCHAR tilde
ENCODING -1
SWIDTH 566 0
DWIDTH 9 0
BBX 5 2 3 9
BITMAP
68
B0
ENDCHAR
STARTCHAR circumflex
ENCODING -1
SWIDTH 566 0
DWIDTH 9 0
BBX 4 2 4 9
BITMAP
60
90
ENDCHAR
STARTCHAR scaron
ENCODING -1
SWIDTH 489 0
DWIDTH 7 0
BBX 6 11 1 0
BITMAP
24
18
00
3C
40
40
30
08
08
08
F0
ENDCHAR
STARTCHAR ring
ENCODING -1
SWIDTH 567 0
DWIDTH 9 0
BBX 4 3 4 8
BITMAP
60
90
60
ENDCHAR
STARTCHAR florin
ENCODING -1
SWIDTH 633 0
DWIDTH 9 0
BBX 7 11 1 -1
BITMAP
1C
22
20
20
F8
40
40
40
80
80
80
ENDCHAR
STARTCHAR fraction
ENCODING -1
SWIDTH 117 0
DWIDTH 4 0
BBX 6 10 -1 0
BITMAP
04
04
08
10
10
20
20
40
80
80
ENDCHAR
STARTCHAR Scaron
ENCODING -1
SWIDTH 553 0
DWIDTH 8 0
BBX 7 13 1 0
BITMAP
24
18
00
3C
42
40
20
10
08
04
04
84
78
ENDCHAR
STARTCHAR zcaron
ENCODING -1
SWIDTH 536 0
DWIDTH 7 0
BBX 7 11 0 0
BITMAP
24
18
00
7E
04
08
10
20
40
80
FC
ENDCHAR
ENDFONT
